<svg width="21" height="21" viewBox="0 0 21 21" fill="none" xmlns="http://www.w3.org/2000/svg">
<path fill-rule="evenodd" clip-rule="evenodd" d="M11.7152 2.69295C11.7152 2.27873 11.3795 1.94295 10.9652 1.94295C10.551 1.94295 10.2152 2.27873 10.2152 2.69295V10.034H2.66968C2.25546 10.034 1.91968 10.3698 1.91968 10.784C1.91968 11.1982 2.25546 11.534 2.66968 11.534H10.2152V18.8813C10.2152 19.2956 10.551 19.6313 10.9652 19.6313C11.3795 19.6313 11.7152 19.2956 11.7152 18.8813V11.534H19.1767C19.5909 11.534 19.9267 11.1982 19.9267 10.784C19.9267 10.3698 19.5909 10.034 19.1767 10.034H11.7152V2.69295Z" fill="#555454"/>
<path d="M10.2152 10.034V11.034C10.7675 11.034 11.2152 10.5863 11.2152 10.034H10.2152ZM10.2152 11.534H11.2152C11.2152 10.9817 10.7675 10.534 10.2152 10.534V11.534ZM11.7152 11.534V10.534C11.163 10.534 10.7152 10.9817 10.7152 11.534H11.7152ZM11.7152 10.034H10.7152C10.7152 10.5863 11.163 11.034 11.7152 11.034V10.034ZM10.9652 2.94295C10.8272 2.94295 10.7152 2.83102 10.7152 2.69295H12.7152C12.7152 1.72645 11.9317 0.942947 10.9652 0.942947V2.94295ZM11.2152 2.69295C11.2152 2.83102 11.1033 2.94295 10.9652 2.94295V0.942947C9.99874 0.942947 9.21524 1.72645 9.21524 2.69295H11.2152ZM11.2152 10.034V2.69295H9.21524V10.034H11.2152ZM2.66968 11.034H10.2152V9.03403H2.66968V11.034ZM2.91968 10.784C2.91968 10.9221 2.80775 11.034 2.66968 11.034V9.03403C1.70318 9.03403 0.919678 9.81753 0.919678 10.784H2.91968ZM2.66968 10.534C2.80775 10.534 2.91968 10.646 2.91968 10.784H0.919678C0.919678 11.7505 1.70318 12.534 2.66968 12.534V10.534ZM10.2152 10.534H2.66968V12.534H10.2152V10.534ZM11.2152 18.8813V11.534H9.21524V18.8813H11.2152ZM10.9652 18.6313C11.1033 18.6313 11.2152 18.7433 11.2152 18.8813H9.21524C9.21524 19.8478 9.99874 20.6313 10.9652 20.6313V18.6313ZM10.7152 18.8813C10.7152 18.7433 10.8272 18.6313 10.9652 18.6313V20.6313C11.9317 20.6313 12.7152 19.8478 12.7152 18.8813H10.7152ZM10.7152 11.534V18.8813H12.7152V11.534H10.7152ZM19.1767 10.534H11.7152V12.534H19.1767V10.534ZM18.9267 10.784C18.9267 10.646 19.0386 10.534 19.1767 10.534V12.534C20.1432 12.534 20.9267 11.7505 20.9267 10.784H18.9267ZM19.1767 11.034C19.0386 11.034 18.9267 10.9221 18.9267 10.784H20.9267C20.9267 9.81753 20.1432 9.03403 19.1767 9.03403V11.034ZM11.7152 11.034H19.1767V9.03403H11.7152V11.034ZM10.7152 2.69295V10.034H12.7152V2.69295H10.7152Z" fill="white"/>
</svg>
