<svg width="45" height="30" viewBox="0 0 45 30" fill="none" xmlns="http://www.w3.org/2000/svg">
<path opacity="0.4" d="M13.0062 17.9758L3.75814 18.7936C1.68271 18.7936 0 17.0945 0 14.9989C0 12.9032 1.68271 11.2041 3.75814 11.2041L13.0062 12.022C14.6344 12.022 15.9544 13.3549 15.9544 14.9989C15.9544 16.6457 14.6344 17.9758 13.0062 17.9758" fill="#200E32"/>
<path d="M44.0617 17.8254C43.9171 17.9714 43.3771 18.5882 42.8698 19.1004C39.9108 22.3086 32.1845 27.5546 28.1428 29.1601C27.5291 29.4162 25.9773 29.9614 25.1455 30C24.3519 30 23.5937 29.8155 22.871 29.452C21.9683 28.9425 21.2483 28.1384 20.8501 27.1911C20.5965 26.5357 20.1983 24.5667 20.1983 24.5309C19.8029 22.3802 19.5874 18.8829 19.5874 15.0165C19.5874 11.3374 19.8029 7.98329 20.1274 5.79677C20.1628 5.75822 20.561 3.31559 20.9947 2.47843C21.7883 0.94731 23.3401 0 25.001 0H25.1455C26.2282 0.0357995 28.5027 0.985865 28.5027 1.01891C32.3291 2.62438 39.8726 7.61704 42.9053 10.9354C42.9053 10.9354 43.7617 11.7891 44.1326 12.3205C44.7107 13.0861 44.9998 14.0334 44.9998 14.9807C44.9998 16.0382 44.6753 17.0213 44.0617 17.8254" fill="#200E32"/>
</svg>
