<svg width="45" height="30" viewBox="0 0 45 30" fill="none" xmlns="http://www.w3.org/2000/svg">
<path opacity="0.4" d="M31.9938 12.0242L41.2419 11.2064C43.3173 11.2064 45 12.9055 45 15.0011C45 17.0968 43.3173 18.7959 41.2419 18.7959L31.9938 17.978C30.3656 17.978 29.0456 16.6451 29.0456 15.0011C29.0456 13.3543 30.3656 12.0242 31.9938 12.0242Z" fill="#200E32"/>
<path d="M0.938349 12.1746C1.08289 12.0286 1.62289 11.4118 2.13015 10.8996C5.08921 7.69139 12.8155 2.44538 16.8572 0.839912C17.4709 0.583808 19.0227 0.0385533 19.8545 0C20.6481 0 21.4063 0.184505 22.129 0.548008C23.0317 1.05746 23.7517 1.86158 24.1499 2.80889C24.4035 3.46429 24.8017 5.43327 24.8017 5.46907C25.1971 7.61979 25.4126 11.1171 25.4126 14.9835C25.4126 18.6626 25.1971 22.0167 24.8726 24.2032C24.8372 24.2418 24.439 26.6844 24.0053 27.5216C23.2117 29.0527 21.6599 30 19.999 30H19.8545C18.7718 29.9642 16.4973 29.0141 16.4973 28.9811C12.6709 27.3756 5.12739 22.383 2.0947 19.0646C2.0947 19.0646 1.23835 18.2109 0.867441 17.6795C0.289267 16.9139 0.000179291 15.9666 0.000179291 15.0193C0.000179291 13.9618 0.32472 12.9787 0.938349 12.1746Z" fill="#200E32"/>
</svg>
