<svg width="44" height="45" viewBox="0 0 44 45" fill="none" xmlns="http://www.w3.org/2000/svg">
<path d="M15.4484 42.2597V35.3593C15.4484 33.6107 16.8703 32.1901 18.6315 32.1791H25.0984C26.8675 32.1791 28.3016 33.6029 28.3016 35.3593V35.3593V42.2397C28.3016 43.7564 29.5341 44.9889 31.0616 44.9999H35.4736C37.5342 45.0052 39.5122 44.1963 40.9711 42.7516C42.4301 41.3069 43.25 39.3452 43.25 37.2994V17.6982C43.2499 16.0456 42.5122 14.4781 41.2354 13.4179L26.2467 1.5171C23.6267 -0.564474 19.8846 -0.497232 17.3421 1.67711L2.67578 13.4179C1.33867 14.4468 0.539493 16.019 0.5 17.6982V37.2794C0.5 41.5433 3.98161 44.9999 8.27639 44.9999H12.5877C13.3231 45.0053 14.0303 44.7189 14.5523 44.2045C15.0743 43.69 15.3678 42.99 15.3678 42.2597H15.4484Z" fill="#200E32"/>
</svg>
