<svg width="36" height="33" viewBox="0 0 36 33" fill="none" xmlns="http://www.w3.org/2000/svg">
<path fill-rule="evenodd" clip-rule="evenodd" d="M35.9936 9.67523H28.3712C24.824 9.68147 21.9504 12.4833 21.944 15.9418C21.9392 19.4082 24.816 22.2224 28.3712 22.2271H36V22.7778C36 28.8244 32.3344 32.4 26.1312 32.4H9.8704C3.6656 32.4 0 28.8244 0 22.7778V9.60815C0 3.56152 3.6656 0 9.8704 0H26.1248C32.328 0 35.9936 3.56152 35.9936 9.60815V9.67523ZM8.53122 9.6612H18.6832H18.6896H18.7024C19.4624 9.65808 20.0768 9.05435 20.0736 8.31178C20.0704 7.57077 19.4496 6.97173 18.6896 6.97485H8.53122C7.77602 6.97797 7.16322 7.57545 7.16002 8.31334C7.15682 9.05435 7.77122 9.65808 8.53122 9.6612Z" fill="white"/>
<path opacity="0.4" d="M25.2673 16.734C25.6437 18.4461 27.1448 19.6507 28.8586 19.6194H34.7085C35.4215 19.6194 36 19.0288 36 18.2989V13.7421C35.9984 13.0137 35.4215 12.4216 34.7085 12.42H28.7209C26.7714 12.4263 25.1969 14.0444 25.2 16.0385C25.2 16.2719 25.2229 16.5053 25.2673 16.734Z" fill="white"/>
<circle cx="28.8" cy="16.02" r="1.8" fill="white"/>
</svg>
